<?xml version="1.0" standalone="no"?>
<!DOCTYPE svg PUBLIC "-//W3C//DTD SVG 20010904//EN"
 "http://www.w3.org/TR/2001/REC-SVG-20010904/DTD/svg10.dtd">
<svg version="1.0"
  xmlns="http://www.w3.org/2000/svg" width="304.000000pt" height="388.000000pt" viewBox="0 0 304.000000 388.000000" preserveAspectRatio="xMidYMid meet">

  <g transform="translate(0.000000,388.000000) scale(0.100000,-0.100000)" fill="#f17f3d" stroke="none">
    <path d="M1712 3798 c-16 -16 -15 -33 4 -52 21 -22 51 -20 64 4 22 42 -34 82
-68 48z"/>
    <path d="M1289 3774 c-7 -21 -6 -31 7 -45 21 -23 51 -10 60 27 12 47 -49 63
-67 18z"/>
    <path d="M1134 3755 c-7 -28 9 -75 26 -75 16 0 42 47 38 72 -2 17 -11 24 -30
26 -22 3 -29 -2 -34 -23z"/>
    <path d="M1871 3766 c-7 -8 -11 -27 -9 -43 3 -24 8 -28 33 -28 23 0 32 6 40
28 8 24 6 31 -10 43 -24 18 -39 18 -54 0z"/>
    <path d="M988 3699 c-27 -15 -23 -57 7 -71 21 -9 28 -8 45 7 25 23 26 51 1 65
-24 12 -31 12 -53 -1z"/>
    <path d="M2020 3689 c-9 -16 -8 -26 5 -45 19 -29 36 -30 58 -6 22 24 21 35 -1
55 -25 23 -49 21 -62 -4z"/>
    <path d="M2189 3657 c-22 -16 -28 -39 -17 -59 8 -17 10 -17 36 -1 41 25 54 44
41 60 -14 16 -39 16 -60 0z"/>
    <path d="M822 3648 c-19 -19 -15 -36 13 -54 21 -13 28 -14 41 -4 24 21 14 64
-16 68 -14 2 -31 -3 -38 -10z"/>
    <path d="M1329 3646 c-30 -8 -89 -28 -130 -44 -41 -17 -100 -35 -130 -40 -113
-21 -236 -79 -289 -137 -14 -15 -54 -48 -90 -73 -107 -76 -195 -159 -222 -210
-34 -61 -73 -187 -88 -282 -11 -68 -10 -85 10 -175 28 -131 35 -185 23 -185
-17 0 -29 21 -57 100 -39 108 -82 173 -159 241 -38 32 -73 59 -78 59 -15 0
-22 -48 -17 -128 4 -58 12 -90 33 -131 35 -69 130 -165 188 -190 101 -43 156
-127 144 -219 -4 -26 -9 -64 -12 -84 -3 -21 -16 -61 -29 -90 -13 -29 -27 -69
-32 -88 -6 -31 -9 -22 -20 64 -7 55 -19 113 -25 130 -13 33 -184 201 -226 224
-14 8 -31 11 -39 8 -23 -9 -1 -42 73 -109 98 -91 158 -232 172 -405 l6 -87 20
50 c43 111 197 347 268 411 53 48 153 104 185 104 27 0 42 -20 42 -56 0 -44
-16 -51 -52 -24 -36 26 -48 23 -125 -38 -55 -44 -159 -183 -242 -325 -39 -66
-57 -109 -71 -174 -10 -48 -17 -89 -15 -91 2 -2 13 15 25 38 12 23 42 62 66
87 77 77 280 156 318 124 19 -16 20 -41 3 -65 -12 -17 -15 -17 -49 0 -37 17
-37 17 -114 -17 -84 -36 -191 -125 -221 -183 -18 -34 -45 -128 -38 -134 2 -2
10 9 19 26 21 41 111 119 145 127 41 9 106 -11 124 -38 54 -83 6 -217 -79
-217 -50 0 -61 -8 -99 -69 -66 -109 -79 -216 -45 -359 25 -102 25 -99 -1 -76
-32 28 -47 65 -75 172 -31 121 -40 258 -25 382 24 198 25 239 2 350 -38 187
-71 249 -165 310 -97 64 -99 62 -94 -77 6 -142 21 -189 93 -298 30 -44 59 -93
65 -109 6 -16 12 -108 14 -205 4 -213 32 -360 103 -551 4 -11 2 -12 -6 -4 -20
19 -131 283 -161 386 -16 54 -36 138 -44 185 -9 47 -18 88 -20 91 -3 3 -14
-16 -25 -41 -70 -163 -42 -392 69 -561 68 -104 98 -135 225 -231 69 -52 156
-131 221 -201 128 -137 206 -201 335 -277 169 -99 286 -136 507 -158 290 -30
557 36 799 197 104 69 180 139 293 269 49 56 128 134 177 173 132 107 213 204
278 332 44 89 56 147 57 281 1 125 -17 212 -51 243 -19 17 -20 17 -26 -21 -21
-140 -56 -272 -105 -393 -38 -94 -119 -324 -116 -328 16 -15 183 318 221 440
34 111 50 125 42 37 -15 -153 -128 -371 -261 -501 -44 -43 -81 -76 -83 -74 -2
2 15 39 37 82 38 75 57 138 121 414 16 71 23 134 25 250 2 86 8 169 14 185 6
16 33 58 59 94 27 36 56 80 65 98 38 76 75 282 56 313 -14 23 -142 -43 -191
-99 -90 -101 -110 -235 -94 -631 8 -211 3 -264 -41 -400 -24 -78 -59 -140 -81
-148 -19 -6 -16 18 13 89 45 108 30 275 -34 379 -25 40 -33 46 -72 50 -92 12
-130 58 -130 157 0 54 3 64 26 82 80 63 193 14 254 -112 33 -69 38 -54 15 38
-19 72 -75 157 -130 198 -22 16 -70 44 -107 63 -49 25 -66 38 -62 49 9 22 17
20 115 -31 94 -49 133 -87 177 -173 l23 -46 -6 49 c-10 72 -49 189 -90 264
-77 141 -236 325 -326 378 l-34 20 0 -30 c0 -28 -4 -31 -33 -34 -41 -4 -52 20
-25 56 40 54 129 29 224 -62 94 -90 235 -314 263 -416 l15 -55 0 40 c1 22 8
81 16 130 20 127 71 226 174 339 83 90 93 106 65 106 -24 0 -80 -42 -165 -125
-85 -83 -110 -130 -124 -235 -5 -37 -10 -49 -14 -36 -18 48 10 172 50 222 16
20 29 41 29 46 0 5 19 41 41 80 32 54 38 72 28 78 -40 25 -107 -65 -144 -194
-9 -32 -18 -56 -20 -54 -6 6 16 121 30 155 13 31 13 34 0 23 -22 -18 -43 -99
-51 -198 l-7 -87 -15 35 c-10 25 -13 60 -10 120 6 109 28 153 100 202 126 85
171 130 213 212 37 73 40 84 40 162 0 45 -3 86 -7 89 -8 8 -110 -69 -149 -111
-36 -40 -62 -87 -94 -171 -16 -42 -41 -85 -60 -103 l-32 -31 13 53 c14 50 45
223 58 313 5 39 5 39 -10 15 l-15 -25 6 31 c8 44 -11 115 -56 210 -47 100 -99
166 -181 233 -254 204 -300 233 -429 266 -35 9 -104 30 -154 47 -84 29 -101
31 -260 34 -123 3 -185 0 -226 -10z m225 -82 c25 -24 24 -78 -1 -106 -15 -17
-13 -18 29 -18 54 0 64 -10 71 -73 2 -26 13 -57 22 -67 10 -11 54 -31 99 -44
60 -19 90 -34 114 -59 38 -39 39 -52 13 -178 -22 -104 -29 -126 -95 -314 -62
-176 -62 -216 -2 -293 85 -108 224 -362 336 -611 26 -58 84 -189 130 -291 84
-189 204 -532 235 -674 17 -74 17 -82 1 -132 -9 -29 -20 -56 -25 -58 -4 -3
-11 23 -14 57 -8 90 -163 561 -197 600 -3 4 -5 -14 -3 -40 2 -26 10 -54 18
-63 14 -15 47 -130 38 -130 -3 0 0 -6 6 -13 6 -8 8 -17 5 -20 -4 -3 0 -23 9
-44 8 -21 24 -85 35 -143 12 -58 26 -130 32 -160 6 -30 14 -67 17 -83 5 -25
-22 -86 -33 -74 -3 2 -11 44 -20 93 -21 124 -69 305 -105 396 -29 72 -49 98
-49 64 0 -8 -4 -16 -9 -18 -6 -2 -2 -27 8 -58 33 -101 80 -324 92 -438 11
-112 11 -113 -11 -137 -13 -14 -26 -23 -29 -20 -3 3 -6 43 -7 88 -4 142 -32
293 -81 437 -25 74 -49 140 -55 145 -6 6 -7 5 -4 -5 3 -8 7 -40 10 -70 3 -30
10 -80 16 -110 12 -60 34 -229 52 -409 12 -113 12 -114 -11 -132 -13 -11 -27
-19 -31 -19 -4 0 -10 44 -14 98 -13 187 -19 241 -26 237 -4 -3 -13 16 -20 41
-10 36 -10 50 -1 68 14 24 1 81 -33 156 -16 34 -16 33 -10 -54 5 -73 4 -88 -7
-84 -15 5 -25 64 -33 195 -2 45 -10 91 -16 102 -13 25 -119 329 -201 576 -33
98 -71 229 -84 289 -14 60 -28 112 -31 115 -11 10 6 -189 22 -264 18 -80 54
-207 90 -315 50 -146 82 -250 77 -250 -3 0 -41 29 -84 65 -44 36 -83 64 -88
61 -10 -7 -34 19 -37 39 -1 8 -20 40 -43 71 -23 32 -41 67 -41 78 0 12 -7 34
-15 50 -8 15 -15 36 -15 45 -1 9 -16 -22 -34 -70 -40 -104 -80 -164 -151 -226
-40 -34 -52 -49 -43 -56 9 -6 8 -7 -4 -3 -9 3 -25 -3 -35 -12 -10 -9 -14 -14
-9 -9 6 4 15 7 21 7 11 -1 -20 -21 -32 -21 -5 0 -19 -7 -31 -15 -13 -9 -25
-14 -27 -12 -1 2 7 26 20 53 12 28 30 71 39 97 11 30 33 60 59 83 23 20 53 46
66 58 14 12 21 16 16 8 -5 -9 -4 -12 2 -8 17 10 53 94 62 143 10 53 5 56 -15
9 -8 -19 -38 -60 -66 -90 -28 -31 -64 -74 -80 -98 -15 -23 -28 -39 -28 -35 0
3 18 64 40 135 26 80 45 163 51 223 16 160 21 190 29 190 4 0 8 21 8 48 l0 47
-13 -40 c-17 -52 -63 -215 -82 -285 -8 -30 -27 -104 -43 -165 -15 -60 -48
-160 -73 -221 -25 -62 -53 -140 -62 -175 -9 -35 -27 -91 -40 -125 -14 -34 -32
-103 -40 -155 -11 -65 -28 -121 -57 -182 -40 -86 -41 -90 -45 -220 -3 -73 0
-151 5 -174 9 -38 8 -43 -7 -43 -9 0 -27 7 -39 16 -22 15 -23 20 -17 117 8
127 67 462 100 565 14 42 25 87 25 99 0 12 4 24 9 27 10 7 20 53 13 61 -3 3
-12 -4 -20 -16 -8 -11 -11 -23 -8 -26 3 -3 -1 -11 -9 -17 -11 -9 -78 -188 -99
-266 -7 -25 -28 -114 -31 -135 -2 -11 -11 -47 -20 -80 -8 -33 -18 -108 -22
-167 -6 -100 -7 -106 -24 -97 -10 5 -22 21 -25 34 -8 34 21 240 56 397 16 71
26 136 23 145 -4 11 -3 14 5 9 15 -9 16 18 2 44 -6 12 -6 27 -1 42 6 13 10 17
11 8 0 -12 3 -11 11 3 6 10 8 35 4 59 -5 28 -4 38 4 34 7 -5 9 -1 5 9 -9 23
-19 8 -33 -50 -7 -27 -17 -59 -21 -70 -47 -115 -120 -430 -120 -518 0 -72 -9
-82 -37 -41 -23 35 -19 80 23 281 20 92 36 175 36 183 0 8 5 20 10 27 5 7 7
16 4 21 -3 5 -1 23 4 41 5 19 5 29 -1 26 -13 -9 -11 9 7 55 9 23 14 43 11 46
-26 27 -157 -467 -157 -595 0 -11 -4 -10 -20 4 -12 11 -20 31 -20 49 0 51 47
315 75 425 15 56 25 105 22 107 -2 2 -27 -62 -56 -143 -50 -144 -80 -262 -81
-313 0 -24 -1 -23 -21 9 -17 28 -19 44 -14 80 14 98 99 340 179 511 45 96 102
220 127 275 108 243 348 690 429 800 l55 74 140 -6 c142 -6 259 1 285 17 12 7
12 11 0 25 -11 13 -24 15 -59 11 -25 -3 -98 -8 -161 -11 -140 -7 -170 -10
-192 -20 -16 -6 -18 -1 -18 46 0 32 -11 82 -26 124 -110 303 -147 448 -128
502 12 35 59 66 138 93 74 24 100 49 116 110 22 89 17 83 71 76 l48 -7 -14 35
c-19 45 -19 66 1 94 18 26 27 27 48 6z m-476 -95 c61 -13 97 -47 88 -83 -13
-54 -78 -85 -106 -51 -11 13 -9 20 14 44 23 24 25 29 11 35 -30 11 -109 7
-182 -11 -76 -17 -87 -16 -77 10 7 18 67 43 134 56 63 12 63 12 118 0z m1022
-5 c67 -15 164 -64 142 -72 -6 -2 -43 3 -81 12 -39 9 -99 16 -134 16 -72 0
-85 -11 -65 -55 9 -20 9 -28 -1 -38 -19 -19 -65 12 -69 47 -6 49 46 89 138
105 3 0 34 -6 70 -15z m-1264 -179 c107 -32 177 -124 178 -236 1 -56 -3 -72
-29 -114 -55 -89 -164 -121 -250 -72 -48 27 -85 79 -85 119 0 44 29 98 64 119
56 34 126 19 126 -26 0 -28 -1 -29 -52 -15 -72 20 -111 -28 -82 -101 41 -100
186 -90 238 16 45 92 7 208 -82 247 -70 31 -111 33 -170 8 -168 -72 -250 -343
-160 -529 30 -61 135 -167 193 -192 112 -50 257 1 281 98 10 38 -15 84 -54
100 -27 11 -32 17 -21 24 8 5 28 9 46 9 27 0 36 -6 58 -43 30 -52 31 -78 6
-133 -33 -72 -126 -126 -221 -127 -162 -1 -350 198 -366 388 -18 209 84 396
251 462 41 16 73 16 131 -2z m1525 -16 c71 -35 165 -149 202 -243 28 -72 27
-200 -2 -285 -44 -126 -113 -207 -234 -272 -50 -27 -73 -33 -118 -33 -112 1
-222 95 -222 189 0 77 55 127 119 110 l29 -8 -42 -19 c-51 -22 -67 -48 -59
-94 22 -113 170 -157 298 -87 73 39 115 85 154 167 80 170 62 329 -52 455 -61
68 -138 105 -204 99 -161 -16 -225 -212 -104 -318 68 -59 167 -31 180 51 8 49
-25 87 -86 97 l-45 8 27 18 c59 39 139 -10 153 -94 16 -94 -71 -181 -166 -165
-57 10 -119 60 -151 124 -31 60 -35 114 -14 173 46 129 210 191 337 127z m517
-495 c-2 -27 -10 -42 -31 -58 -16 -11 -39 -42 -52 -67 -13 -25 -30 -51 -38
-58 -13 -10 -14 -6 -5 31 5 24 18 59 30 78 24 41 80 108 91 109 4 1 7 -15 5
-35z m-2687 5 c16 -11 40 -39 54 -63 24 -41 65 -148 65 -169 0 -24 -41 30 -80
106 -23 45 -48 89 -55 97 -14 18 -27 50 -19 50 3 0 19 -9 35 -21z m2177 -93
c-13 -57 -35 -79 -72 -72 -54 11 -55 24 -4 70 26 23 56 42 66 42 17 0 18 -5
10 -40z m-1629 14 c49 -26 46 -90 -3 -90 -38 0 -68 31 -70 72 -1 34 0 36 26
32 15 -1 36 -8 47 -14z m2089 -45 c-6 -14 -13 -23 -15 -21 -5 5 15 46 22 46 3
0 -1 -11 -7 -25z m-248 -110 c0 -2 -12 -30 -26 -62 -29 -66 -54 -162 -54 -210
0 -46 -15 -41 -35 11 -24 62 -5 128 64 224 27 36 51 54 51 37z m-2060 -66 c50
-77 60 -114 49 -173 -15 -82 -26 -86 -34 -15 -6 58 -20 102 -69 212 -14 33
-15 37 -1 37 9 0 33 -28 55 -61z m450 -139 c26 -26 25 -45 -2 -64 -31 -22 -45
-20 -64 9 -15 23 -15 27 0 50 20 30 39 32 66 5z m1160 -20 c10 -24 10 -33 0
-45 -18 -22 -36 -18 -59 11 -16 20 -18 31 -10 45 16 30 54 24 69 -11z m52
-127 c22 -20 24 -71 2 -80 -24 -9 -64 14 -64 37 0 27 18 60 32 60 6 0 20 -7
30 -17z m-1265 -9 c17 -46 -46 -104 -81 -74 -21 16 -20 49 1 72 20 23 71 24
80 2z m-169 -26 c34 -34 -7 -108 -44 -77 -27 22 -12 89 21 89 6 0 16 -5 23
-12z m1577 0 c28 -13 34 -48 10 -68 -35 -29 -77 11 -57 54 13 30 13 30 47 14z
m650 -124 c-6 -54 -63 -191 -96 -231 -24 -31 -25 -36 10 81 11 38 19 71 17 73
-5 5 -86 -195 -86 -212 0 -8 -5 -15 -11 -15 -15 0 -2 73 22 129 10 24 19 48
19 53 0 14 64 118 90 146 32 34 41 28 35 -24z m-2807 -22 c21 -33 10 -27 -29
15 -26 28 -28 33 -10 22 14 -9 31 -25 39 -37z m2195 8 c77 -24 137 -75 192
-163 l37 -58 -69 66 c-44 43 -94 79 -141 102 -73 36 -73 36 -103 19 -28 -16
-32 -16 -54 -2 -28 18 -31 35 -12 55 14 15 57 10 150 -19z m-1533 5 c18 -21 8
-50 -19 -53 -13 -2 -41 4 -62 13 -38 17 -39 17 -92 -8 -29 -15 -90 -61 -135
-103 -45 -42 -82 -73 -82 -70 0 13 49 82 89 128 51 57 138 103 181 95 16 -4
32 -2 35 3 9 15 71 12 85 -5z m-677 -44 c37 -51 80 -158 91 -226 6 -38 6 -39
-10 -20 -9 11 -29 49 -46 85 -16 36 -40 88 -53 115 -49 105 -40 128 18 46z
m-24 -75 c11 -34 26 -80 35 -100 26 -63 -7 -25 -37 42 -26 57 -42 136 -26 126
5 -3 17 -33 28 -68z m2212 4 c25 -14 24 -26 -6 -55 -30 -31 -53 -32 -64 -2
-18 49 22 82 70 57z m-1667 -116 c21 -21 20 -47 -3 -68 -17 -16 -19 -16 -25 6
-9 35 -7 78 3 78 5 0 17 -7 25 -16z m1736 -3 c0 -19 -43 -55 -54 -44 -10 10
-7 38 6 51 19 19 48 15 48 -7z m-824 -325 c24 -61 68 -113 158 -183 91 -72
135 -119 169 -180 25 -47 63 -190 53 -201 -3 -2 -21 8 -40 23 -31 24 -49 28
-153 37 -71 6 -127 15 -141 24 -27 18 -82 92 -82 111 0 25 -15 13 -65 -52 -28
-35 -56 -66 -63 -69 -7 -3 -47 -8 -90 -11 -104 -8 -117 -12 -163 -42 -22 -14
-42 -23 -46 -20 -12 12 18 117 53 187 27 52 52 84 101 127 157 137 183 166
217 237 18 39 36 85 40 101 l8 30 13 -35 c7 -19 21 -57 31 -84z m-1470 -276
c57 -159 87 -214 195 -349 55 -68 99 -131 99 -140 -1 -27 -192 179 -244 262
-57 92 -94 201 -101 300 -6 82 -4 79 51 -73z m771 -72 c-3 -8 -6 -5 -6 6 -1
11 2 17 5 13 3 -3 4 -12 1 -19z m-30 -110 c-3 -8 -6 -5 -6 6 -1 11 2 17 5 13
3 -3 4 -12 1 -19z m706 -47 c15 -27 27 -58 27 -69 0 -21 -36 -37 -46 -21 -3 5
-11 9 -17 7 -25 -4 -57 14 -57 33 0 20 47 99 60 99 4 0 19 -22 33 -49z m-732
-24 c-10 -9 -11 -8 -5 6 3 10 9 15 12 12 3 -3 0 -11 -7 -18z m578 -37 c56 -10
88 -30 118 -72 l20 -28 24 36 c32 49 92 73 183 73 90 1 144 -24 198 -93 71
-88 93 -148 92 -247 -1 -70 -6 -96 -27 -143 -33 -71 -139 -183 -204 -216 -91
-46 -199 -37 -261 21 -21 19 -22 19 -47 -3 -76 -67 -205 -62 -310 10 -140 97
-202 287 -146 447 40 115 92 168 196 204 69 23 92 25 164 11z"/>
    <path d="M1570 3368 c-14 -5 -49 -7 -77 -4 -52 6 -53 6 -53 -19 0 -77 -46
-118 -170 -149 -35 -9 -68 -22 -72 -29 -11 -17 -10 -39 1 -33 17 11 159 -33
210 -64 28 -18 67 -52 85 -76 l34 -44 40 48 c58 69 128 104 219 110 68 4 74 7
79 29 9 33 -1 40 -90 65 -106 29 -137 51 -158 117 -10 30 -19 55 -20 56 -2 2
-14 -2 -28 -7z"/>
    <path d="M1780 3020 c-8 -5 -12 -12 -9 -15 8 -8 39 5 39 16 0 11 -11 11 -30
-1z"/>
    <path d="M1795 2947 c-17 -18 -45 -57 -64 -87 -38 -64 -25 -52 48 43 57 74 64
95 16 44z"/>
    <path d="M1350 2850 c6 -11 13 -20 16 -20 2 0 0 9 -6 20 -6 11 -13 20 -16 20
-2 0 0 -9 6 -20z"/>
    <path d="M1781 2827 c-13 -21 -12 -21 5 -5 10 10 16 20 13 22 -3 3 -11 -5 -18
-17z"/>
    <path d="M1370 2814 c1 -12 20 -34 50 -59 l24 -20 -22 31 c-24 35 -52 61 -52
48z"/>
    <path d="M1740 2763 c-13 -21 -33 -49 -44 -63 l-21 -25 28 24 c36 32 35 14 -3
-25 -16 -18 -27 -34 -24 -37 2 -2 -7 -12 -22 -22 -23 -15 -40 -16 -118 -10
-106 8 -138 19 -189 67 -43 41 -44 40 -17 -11 30 -60 70 -74 223 -75 116 -1
130 1 143 18 11 16 11 22 1 35 -6 8 -7 12 -1 8 12 -7 48 59 39 73 -3 4 2 11
11 14 8 3 12 11 9 16 -4 6 -1 18 6 26 6 8 9 17 7 20 -3 3 -16 -12 -28 -33z"/>
    <path d="M1454 2754 c13 -29 35 -38 67 -25 13 5 17 10 9 10 -8 1 -32 10 -51
20 l-37 20 12 -25z"/>
    <path d="M1320 2764 c0 -13 84 -85 115 -99 33 -14 58 -18 125 -16 35 1 48 6
59 24 12 19 12 20 0 10 -18 -15 -92 -20 -139 -9 -19 5 -63 28 -97 53 -35 24
-63 41 -63 37z"/>
    <path d="M1426 2225 c-3 -8 -1 -15 4 -15 6 0 10 7 10 15 0 8 -2 15 -4 15 -2 0
-6 -7 -10 -15z"/>
    <path d="M1961 1963 c28 -74 114 -263 120 -263 11 0 5 19 -31 95 -18 39 -45
98 -61 133 -28 62 -48 86 -28 35z"/>
    <path d="M1904 1892 c14 -53 61 -162 70 -162 11 0 -57 186 -74 204 -5 5 -3
-14 4 -42z"/>
    <path d="M1609 1690 c25 -86 84 -199 126 -240 29 -28 33 -29 28 -11 -3 11 -10
21 -16 21 -6 0 -7 3 -4 7 4 3 3 11 -2 17 -14 16 -104 199 -107 215 -2 8 -12
23 -23 35 l-21 20 19 -64z"/>
    <path d="M1866 1709 c4 -13 7 -30 7 -36 0 -7 4 -13 7 -13 4 0 10 -18 14 -39 6
-38 36 -67 36 -35 0 26 -32 114 -41 114 -5 0 -8 5 -6 11 1 6 -4 14 -12 16 -10
4 -11 0 -5 -18z"/>
    <path d="M1981 1695 c0 -11 6 -31 14 -45 18 -31 18 -16 0 30 -9 23 -14 28 -14
15z"/>
    <path d="M1190 1670 c0 -5 5 -10 11 -10 5 0 7 5 4 10 -3 6 -8 10 -11 10 -2 0
-4 -4 -4 -10z"/>
    <path d="M2090 1668 c0 -7 9 -26 20 -43 22 -33 26 -24 9 24 -11 31 -29 43 -29
19z"/>
    <path d="M1053 1583 c-25 -62 -24 -83 0 -34 15 30 32 91 25 91 -2 0 -13 -26
-25 -57z"/>
    <path d="M1140 1547 c-25 -56 -38 -133 -21 -123 7 5 10 14 7 22 -7 19 4 45 16
37 7 -4 9 4 6 21 -3 16 -1 26 7 26 6 0 12 13 12 30 0 17 -2 30 -4 30 -2 0 -13
-19 -23 -43z"/>
    <path d="M973 1409 c-15 -29 -34 -101 -29 -107 2 -2 7 7 11 20 4 13 14 30 22
40 8 9 13 29 11 44 l-3 28 -12 -25z"/>
    <path d="M1086 1388 c-11 -16 -12 -26 -5 -40 6 -11 13 -17 16 -14 3 3 0 12 -6
20 -7 9 -8 17 -2 20 5 3 12 0 14 -6 3 -7 6 -1 6 15 1 33 -3 34 -23 5z"/>
    <path d="M1670 1406 c0 -2 8 -10 18 -17 15 -13 16 -12 3 4 -13 16 -21 21 -21
13z"/>
    <path d="M2220 1385 c0 -8 4 -15 10 -15 5 0 7 7 4 15 -4 8 -8 15 -10 15 -2 0
-4 -7 -4 -15z"/>
    <path d="M2230 1328 c0 -4 4 -8 9 -8 6 0 12 4 15 8 3 5 -1 9 -9 9 -8 0 -15 -4
-15 -9z"/>
    <path d="M1053 1315 c-3 -9 -3 -19 1 -22 8 -9 37 18 30 28 -8 14 -24 11 -31
-6z"/>
    <path d="M2023 1294 c0 -7 4 -14 9 -14 5 0 6 -4 3 -10 -3 -5 -2 -10 4 -10 6 0
8 -8 5 -17 -5 -16 -4 -16 6 -3 9 12 10 10 6 -12 -7 -32 9 -39 17 -8 3 10 -1
24 -8 30 -8 6 -11 18 -9 25 3 7 -3 18 -14 24 -14 8 -19 7 -19 -5z"/>
    <path d="M712 1235 c-7 -14 -12 -34 -11 -43 0 -9 7 1 15 22 16 45 13 59 -4 21z"/>
    <path d="M926 1197 c3 -10 9 -15 12 -12 3 3 0 11 -7 18 -10 9 -11 8 -5 -6z"/>
    <path d="M2210 1180 c-7 -24 -7 -61 1 -66 17 -10 21 2 10 37 -5 19 -10 32 -11
29z"/>
    <path d="M2111 744 c0 -11 3 -14 6 -6 3 7 2 16 -1 19 -3 4 -6 -2 -5 -13z"/>
    <path d="M1479 1259 c-39 -66 -77 -113 -139 -171 -98 -94 -113 -113 -76 -98
95 36 169 93 231 178 25 34 49 62 54 62 5 0 14 -14 21 -30 34 -83 134 -172
210 -186 34 -7 32 -4 -65 97 -61 64 -113 128 -133 166 -18 34 -36 65 -41 67
-4 3 -32 -35 -62 -85z"/>
    <path d="M1310 849 c0 -5 4 -8 8 -5 4 2 38 -4 75 -14 61 -16 98 -36 119 -65 5
-7 8 -6 8 1 0 19 -55 63 -99 79 -50 17 -111 20 -111 4z"/>
    <path d="M1666 844 c-61 -22 -129 -94 -141 -150 l-6 -29 23 30 c62 80 91 105
145 122 43 13 51 19 36 25 -13 6 -8 7 15 5 17 -2 32 0 32 5 0 13 -61 8 -104
-8z"/>
    <path d="M1189 813 c-13 -16 -12 -17 4 -4 16 13 21 21 13 21 -2 0 -10 -8 -17
-17z"/>
    <path d="M1190 783 c-24 -21 -46 -36 -50 -34 -6 5 -30 -41 -35 -71 -3 -11 0
-28 6 -37 8 -12 9 -11 3 8 -4 16 -3 21 5 17 6 -4 11 -2 11 5 0 22 50 87 86
111 32 22 43 38 26 38 -5 0 -28 -17 -52 -37z"/>
    <path d="M1860 817 c0 -2 17 -21 37 -43 36 -39 37 -33 1 19 -16 22 -38 36 -38
24z"/>
    <path d="M1740 770 c0 -6 -4 -9 -9 -6 -25 16 -132 -41 -150 -80 -5 -11 -15
-65 -21 -118 -7 -54 -16 -94 -21 -89 -4 4 -11 46 -15 93 l-7 85 -49 47 c-28
26 -66 53 -87 59 -44 13 -107 9 -104 -8 2 -7 -6 -10 -17 -8 -28 5 -86 -47
-100 -91 -13 -39 -15 -104 -5 -167 17 -99 80 -157 174 -157 63 0 96 16 144 69
32 36 88 76 74 54 -3 -5 14 -30 38 -55 62 -65 174 -100 205 -64 10 13 0 21
-61 51 -103 52 -139 101 -139 188 0 114 140 196 230 135 55 -38 71 -67 72
-134 0 -32 -9 -94 -21 -137 -12 -43 -22 -90 -23 -103 -4 -42 -33 -59 -97 -57
-84 2 -140 20 -170 54 -32 37 -41 37 -41 0 0 -50 81 -101 162 -101 14 0 55 15
89 33 134 69 197 233 140 362 -24 55 -60 97 -106 124 -39 24 -85 35 -85 21z
m-336 -53 c59 -34 79 -67 84 -140 5 -80 -14 -126 -68 -166 -68 -49 -132 -50
-188 -2 -23 20 -27 30 -41 115 -15 85 23 163 96 201 39 21 72 18 117 -8z"/>
    <path d="M1274 636 c-28 -28 -34 -42 -34 -75 0 -37 4 -42 40 -63 54 -31 62
-54 9 -28 -40 21 -40 21 -30 1 21 -38 72 -37 137 1 47 28 52 62 22 141 -12 30
-54 57 -89 57 -11 0 -36 -15 -55 -34z m106 -35 c14 -28 13 -38 -10 -61 -38
-38 -89 -18 -73 28 18 50 64 68 83 33z"/>
    <path d="M1440 752 c0 -11 41 -34 48 -27 4 4 -2 13 -12 21 -22 15 -36 18 -36
6z"/>
    <path d="M1669 641 c-24 -24 -29 -38 -29 -77 0 -58 37 -115 70 -107 23 6 27
23 6 23 -15 0 -36 49 -36 86 0 24 33 54 61 54 23 0 47 -30 52 -65 2 -17 10
-29 16 -27 9 2 10 -5 6 -20 -6 -18 -4 -20 5 -12 6 7 14 37 16 67 4 51 3 56
-26 81 -45 37 -102 36 -141 -3z"/>
    <path d="M1093 605 c0 -14 3 -22 8 -19 5 3 9 11 9 19 0 8 -4 16 -9 19 -5 3 -8
-5 -8 -19z"/>
    <path d="M1716 525 c4 -8 16 -15 28 -15 21 1 21 1 2 15 -25 19 -37 19 -30 0z"/>
    <path d="M1140 375 c0 -17 54 -86 82 -106 46 -33 175 -40 234 -12 51 24 105
123 66 123 -4 0 -12 -10 -17 -22 -6 -13 -32 -38 -60 -56 -44 -30 -56 -33 -110
-31 -82 3 -107 14 -154 65 -23 24 -41 41 -41 39z"/>
    <path d="M723 3544 c-9 -24 10 -49 38 -49 27 0 37 28 19 50 -17 20 -49 19 -57
-1z"/>
    <path d="M2253 3534 c-9 -23 23 -45 50 -35 12 5 23 18 25 30 3 18 -1 21 -33
21 -24 0 -38 -5 -42 -16z"/>
    <path d="M2441 3474 c-37 -26 -21 -74 26 -74 29 0 48 33 34 59 -15 27 -35 32
-60 15z"/>
    <path d="M530 3465 c-11 -13 -11 -20 0 -40 19 -35 42 -40 62 -15 22 27 22 34
2 54 -20 20 -48 20 -64 1z"/>
    <path d="M416 3341 c-41 -45 -72 -201 -47 -239 16 -26 101 130 101 185 0 69
-21 90 -54 54z"/>
    <path d="M2571 3346 c-19 -23 -25 -83 -11 -118 19 -47 80 -129 91 -122 24 15
-2 176 -37 232 -17 26 -27 28 -43 8z"/>
    <path d="M240 3271 c-7 -15 -6 -24 6 -36 9 -9 21 -14 27 -12 18 6 31 33 24 51
-9 22 -44 20 -57 -3z"/>
    <path d="M2747 3284 c-13 -14 -7 -43 12 -53 24 -13 55 8 50 35 -4 19 -48 32
-62 18z"/>
    <path d="M202 3068 c-31 -31 4 -98 52 -98 24 0 56 32 56 56 0 7 -9 22 -20 35
-12 15 -18 17 -14 8 3 -10 0 -20 -6 -24 -7 -4 -14 2 -17 14 -6 23 -32 28 -51
9z"/>
    <path d="M2757 3060 c-31 -25 -34 -50 -9 -73 44 -40 106 5 86 61 -12 34 -43
39 -77 12z"/>
    <path d="M240 2436 c0 -3 23 -51 50 -107 28 -56 50 -108 50 -115 0 -7 5 -16
11 -20 7 -4 9 0 6 12 -3 11 -8 39 -12 64 -9 64 11 31 25 -40 28 -148 33 -171
41 -175 4 -3 10 12 14 33 7 44 -13 142 -44 214 -24 57 -96 138 -122 138 -11 0
-19 -2 -19 -4z m177 -328 c-3 -7 -5 -2 -5 12 0 14 2 19 5 13 2 -7 2 -19 0 -25z"/>
    <path d="M431 2294 c0 -11 3 -14 6 -6 3 7 2 16 -1 19 -3 4 -6 -2 -5 -13z"/>
    <path d="M434 2254 c3 -9 6 -30 7 -47 l1 -32 10 34 c10 36 5 61 -13 61 -6 0
-8 -7 -5 -16z"/>
    <path d="M455 1582 c-64 -39 -110 -120 -123 -217 -8 -67 -3 -197 9 -209 3 -4
14 23 24 59 21 81 75 194 103 219 15 13 29 16 47 12 59 -15 104 95 57 137 -24
22 -80 21 -117 -1z"/>
    <path d="M2449 1579 c-17 -17 -20 -28 -14 -57 12 -64 22 -74 69 -70 40 3 45 0
84 -45 57 -65 69 -92 83 -176 7 -39 15 -71 20 -71 13 0 22 88 16 159 -8 94
-38 169 -89 218 -24 22 -53 46 -65 52 -34 18 -81 13 -104 -10z"/>
    <path d="M2771 639 c-35 -10 -79 -28 -98 -41 -32 -22 -101 -115 -137 -185 -8
-17 -36 -48 -61 -68 -25 -21 -42 -42 -39 -47 4 -6 1 -8 -7 -6 -14 5 -69 -18
-69 -28 0 -4 17 -4 38 -2 20 3 68 1 106 -3 56 -7 82 -17 130 -49 34 -22 67
-45 74 -51 10 -8 13 -8 11 2 -3 25 1 39 11 39 5 0 8 -17 6 -38 -5 -51 -27 -52
-101 -5 -95 61 -112 66 -237 71 -130 5 -165 -11 -52 -23 53 -5 90 -19 185 -67
138 -70 190 -81 231 -49 15 12 28 33 30 48 2 21 10 29 38 36 56 14 70 33 70
92 0 35 5 57 15 65 9 7 29 30 45 51 l30 37 -25 31 c-14 16 -42 36 -61 43 -31
11 -34 15 -27 38 17 58 0 132 -31 129 -6 -1 -40 -10 -75 -20z m53 -65 c9 -8
16 -22 16 -29 0 -17 -17 -29 -22 -15 -7 21 -120 14 -167 -9 -47 -24 -53 -11
-10 21 58 44 155 61 183 32z m2 -89 c-6 -22 -3 -25 19 -25 33 0 75 -27 75 -49
0 -9 -14 -24 -30 -33 -17 -9 -30 -25 -30 -35 0 -15 -2 -15 -9 -4 -6 9 -7 -8
-4 -46 5 -55 4 -62 -16 -73 -30 -16 -92 -9 -105 12 -8 13 -6 22 8 37 11 12 20
40 22 68 l4 48 -14 -53 c-15 -61 -13 -57 -48 -66 -27 -6 -28 -5 -28 33 0 40
11 56 44 62 11 2 21 10 24 17 6 18 -49 15 -76 -4 -28 -19 -28 -7 0 23 32 34
88 31 132 -7 32 -29 34 -29 28 -8 -5 21 -4 22 12 9 24 -20 32 -6 12 24 -16 25
-44 36 -30 13 4 -7 -4 -3 -18 10 -18 16 -37 22 -70 22 -82 0 -95 -14 -105
-110 -4 -41 -2 -65 7 -75 7 -8 9 -15 4 -15 -28 1 -54 45 -54 91 0 45 43 113
80 129 30 12 123 15 140 5 4 -3 10 2 14 10 9 25 19 17 12 -10z m-266 -160 c0
-8 -6 -15 -12 -15 -7 0 -31 -3 -53 -6 l-40 -5 35 20 c42 24 70 27 70 6z"/>
    <path d="M2775 364 c11 -28 6 -76 -10 -94 -20 -22 -19 -30 5 -30 40 0 47 112
9 136 -9 5 -10 2 -4 -12z"/>
    <path d="M190 635 c-9 -11 -11 -36 -7 -81 4 -60 3 -66 -17 -74 -35 -13 -86
-60 -86 -79 0 -23 38 -58 78 -72 27 -9 30 -14 22 -29 -13 -24 -13 -76 0 -101
14 -25 66 -52 89 -44 14 4 17 -1 18 -29 1 -49 9 -56 59 -56 35 0 69 13 159 60
91 47 130 62 187 70 79 11 90 16 68 30 -46 29 -259 -13 -349 -68 -91 -56 -97
-58 -86 -29 10 23 114 92 169 110 29 10 83 17 130 17 l81 1 -77 39 c-76 39
-77 41 -124 127 -64 117 -132 186 -203 207 -68 20 -95 20 -111 1z m167 -67
c48 -12 77 -40 87 -83 l8 -30 -24 35 c-35 51 -62 62 -140 56 -50 -4 -68 -2
-68 8 0 35 39 39 137 14z m56 -94 c34 -28 77 -109 77 -145 0 -27 -51 -72 -123
-107 -35 -18 -69 -32 -75 -32 -6 0 -24 12 -41 26 -39 32 -42 82 -8 135 38 62
78 89 133 89 46 1 48 2 29 16 -15 12 -34 14 -79 8 -39 -4 -56 -3 -52 4 3 6 -2
8 -13 5 -10 -3 -22 0 -26 6 -10 17 35 31 92 28 39 -3 59 -10 86 -33z m-183
-24 c0 -7 14 -8 38 -4 l37 6 -50 -36 c-35 -26 -59 -36 -79 -34 -43 4 -43 23 1
52 42 28 53 31 53 16z m205 -305 c-16 -14 -37 -25 -45 -25 -8 0 1 11 20 25 45
31 64 32 25 0z"/>
    <path d="M338 398 c-10 -12 -15 -24 -13 -27 8 -8 38 26 34 38 -2 5 -12 1 -21
-11z"/>
    <path d="M381 404 c-11 -14 -12 -25 -1 -70 8 -30 17 -57 22 -60 12 -8 58 42
58 63 0 25 -37 83 -52 83 -7 -1 -19 -8 -27 -16z m33 -68 c-3 -9 -10 -16 -15
-16 -11 0 -12 43 -2 54 10 10 24 -20 17 -38z"/>
    <path d="M282 336 c-11 -12 -23 -31 -27 -44 -12 -40 40 -95 60 -62 3 5 -3 22
-15 38 -21 28 -19 62 4 62 14 0 46 -55 47 -83 0 -12 3 -16 6 -9 2 6 11 12 19
12 19 0 18 7 -6 32 -11 12 -20 32 -20 44 0 31 -43 38 -68 10z"/>
  </g>
</svg>
